<svg width="29" height="29" viewBox="0 0 29 29" fill="none" xmlns="http://www.w3.org/2000/svg">
<path d="M10.8333 15.0903C7.93177 12.9203 5.8621 10.5333 4.7316 9.19167C4.3816 8.77633 4.26727 8.47183 4.19844 7.93633C3.96277 6.10233 3.84494 5.18533 4.38277 4.59267C4.9206 4 5.87144 4 7.7731 4H21.2271C23.1288 4 24.0796 4 24.6174 4.5915C25.1553 5.18417 25.0374 6.10117 24.8018 7.93517C24.7318 8.47067 24.6174 8.77517 24.2686 9.1905C23.1369 10.5345 21.0638 12.9262 18.1553 15.0997C18.0208 15.2043 17.9096 15.3359 17.8288 15.4859C17.7481 15.636 17.6995 15.8013 17.6863 15.9712C17.3981 19.1573 17.1321 20.9027 16.9664 21.7847C16.6993 23.2103 14.6798 24.0678 13.5971 24.832C12.9531 25.287 12.1714 24.7457 12.0886 24.041C11.7788 21.3559 11.5167 18.6655 11.3023 15.9712C11.2903 15.7997 11.2423 15.6326 11.1615 15.4808C11.0807 15.3291 10.9689 15.196 10.8333 15.0903Z" stroke="#BC560A" stroke-width="1.5" stroke-linecap="round" stroke-linejoin="round"/>
</svg>
