<svg width="29" height="28" viewBox="0 0 29 28" fill="none" xmlns="http://www.w3.org/2000/svg">
<path d="M25.9397 11.7151H24.9999V11.6667H14.4999V16.3333H21.0933C20.1314 19.0499 17.5467 21 14.4999 21C10.6342 21 7.49992 17.8658 7.49992 14C7.49992 10.1343 10.6342 7 14.4999 7C16.2843 7 17.9078 7.67317 19.1438 8.77275L22.4438 5.47284C20.3601 3.53092 17.5729 2.33334 14.4999 2.33334C8.057 2.33334 2.83325 7.55709 2.83325 14C2.83325 20.4429 8.057 25.6667 14.4999 25.6667C20.9428 25.6667 26.1666 20.4429 26.1666 14C26.1666 13.2178 26.0861 12.4542 25.9397 11.7151Z" fill="#FFC107"/>
<path d="M4.17847 8.56975L8.01155 11.3808C9.04872 8.813 11.5606 7 14.5 7C16.2844 7 17.9078 7.67317 19.1439 8.77275L22.4438 5.47284C20.3601 3.53092 17.573 2.33334 14.5 2.33334C10.0188 2.33334 6.13263 4.86325 4.17847 8.56975Z" fill="#FF3D00"/>
<path d="M14.5 25.6667C17.5135 25.6667 20.2517 24.5134 22.3219 22.638L18.7111 19.5825C17.5006 20.5036 16.0211 21.0016 14.5 21C11.4655 21 8.88894 19.0651 7.91827 16.3648L4.11377 19.2961C6.0446 23.0743 9.96577 25.6667 14.5 25.6667Z" fill="#4CAF50"/>
<path d="M25.9397 11.7151H25V11.6667H14.5V16.3333H21.0934C20.6333 17.6262 19.8045 18.756 18.7093 19.5831L18.7111 19.5819L22.3219 22.6374C22.0664 22.8696 26.1667 19.8333 26.1667 14C26.1667 13.2177 26.0862 12.4542 25.9397 11.7151Z" fill="#1976D2"/>
</svg>
