<svg width="28" height="28" viewBox="0 0 28 28" fill="none" xmlns="http://www.w3.org/2000/svg">
<path d="M2.33325 14.238C2.33325 11.5675 2.33325 10.2328 2.93992 9.12684C3.54425 8.01967 4.65142 7.33367 6.86459 5.95934L9.19792 4.5115C11.5371 3.059 12.7073 2.33334 13.9999 2.33334C15.2926 2.33334 16.4616 3.059 18.8019 4.5115L21.1353 5.95934C23.3484 7.33367 24.4556 8.01967 25.0611 9.12684C25.6666 10.234 25.6666 11.5675 25.6666 14.2368V16.0125C25.6666 20.5625 25.6666 22.8387 24.2993 24.2527C22.9319 25.6667 20.7328 25.6667 16.3333 25.6667H11.6666C7.26709 25.6667 5.06675 25.6667 3.70059 24.2527C2.33442 22.8387 2.33325 20.5637 2.33325 16.0125V14.238Z" fill="#BC560A" stroke="#BC560A" stroke-width="1.5"/>
<path d="M10.5 18.6667C11.4917 19.4017 12.6992 19.8333 14 19.8333C15.3008 19.8333 16.5083 19.4017 17.5 18.6667" stroke="#FEF3C7" stroke-width="1.5" stroke-linecap="round"/>
</svg>
