<svg width="28" height="28" viewBox="0 0 28 28" fill="none" xmlns="http://www.w3.org/2000/svg">
<path d="M13.4166 3.5C16.3561 3.5 19.1752 4.6677 21.2537 6.74623C23.3322 8.82476 24.4999 11.6439 24.4999 14.5833C24.4999 17.5228 23.3322 20.3419 21.2537 22.4204C19.1752 24.499 16.3561 25.6667 13.4166 25.6667C10.4771 25.6667 7.65801 24.499 5.57948 22.4204C3.50096 20.3419 2.33325 17.5228 2.33325 14.5833C2.33325 11.6439 3.50096 8.82476 5.57948 6.74623C7.65801 4.6677 10.4771 3.5 13.4166 3.5ZM13.4166 4.66667C10.7865 4.66667 8.26418 5.71146 6.40444 7.57119C4.54471 9.43093 3.49992 11.9533 3.49992 14.5833C3.49992 17.2134 4.54471 19.7357 6.40444 21.5955C8.26418 23.4552 10.7865 24.5 13.4166 24.5C14.7189 24.5 16.0084 24.2435 17.2115 23.7451C18.4147 23.2468 19.5079 22.5163 20.4287 21.5955C21.3496 20.6746 22.08 19.5814 22.5784 18.3783C23.0767 17.1751 23.3333 15.8856 23.3333 14.5833C23.3333 11.9533 22.2885 9.43093 20.4287 7.57119C18.569 5.71146 16.0466 4.66667 13.4166 4.66667ZM12.8333 8.16667H13.9999V14.49L19.4833 17.6517L18.8999 18.6667L12.8333 15.1667V8.16667Z" fill="#657B79" stroke="#657B79" stroke-width="0.5"/>
</svg>
