<svg width="150" height="61" viewBox="0 0 150 61" fill="none" xmlns="http://www.w3.org/2000/svg">
<path fill-rule="evenodd" clip-rule="evenodd" d="M25.2 48.4843C28.4323 48.4843 33.9391 47.5865 36.6926 46.509V32.323C33.8194 34.1187 30.1084 35.1962 26.2177 35.1962C18.1967 35.1962 14.5456 31.1857 14.5456 25.978C14.5456 20.95 18.975 17.5382 24.422 17.5382C27.5345 17.5382 31.5449 18.855 33.0414 20.1719L35.2562 7.24268C32.7424 5.92572 26.7567 4.78878 23.524 4.78878C8.4998 4.78878 0 14.2463 0 26.4571C0 38.4882 8.73922 48.4843 25.2 48.4843ZM38.1284 47.5865H52.6737V0.898084H38.1284V47.5865ZM62.1298 14.4255C66.4994 14.4255 69.7317 11.1931 69.7317 7.24268C69.7317 3.23227 66.4994 0 62.1298 0C57.7603 0 54.5279 3.23227 54.5279 7.24268C54.5284 11.1931 57.7606 14.4255 62.1298 14.4255ZM54.7678 47.5865H69.373V15.563H54.7678V47.5865ZM71.4077 60.755H85.9529V38.2488H86.5515C87.15 43.995 90.921 48.4843 97.4454 48.4843C105.945 48.4843 111.691 41.6008 111.691 31.6046C111.691 22.3267 105.047 14.6649 95.2906 14.6649C89.4246 14.6649 84.8156 17.1789 82.0023 21.0696H81.7629L72.7244 15.563H71.4077V60.755ZM90.7417 37.2911C87.3897 37.2911 85.0553 34.5375 85.0553 31.3651C85.0553 28.1927 87.3298 25.499 90.622 25.499C94.0338 25.499 96.3682 28.2526 96.3682 31.425C96.3682 34.5974 94.0934 37.2911 90.7414 37.2911H90.7417ZM131.144 48.4843C143.057 48.4843 150 40.7628 150 31.4848C150 22.2069 143.116 14.6652 131.263 14.6652C119.411 14.6652 112.408 22.3269 112.408 31.6048C112.408 40.8827 119.352 48.4843 131.144 48.4843H131.144ZM131.204 37.4706C127.852 37.4706 125.577 34.7171 125.577 31.5447C125.577 28.3723 127.792 25.6786 131.144 25.6786C134.496 25.6786 136.831 28.4321 136.831 31.6046C136.831 34.7172 134.557 37.4706 131.204 37.4706H131.204Z" fill="#BC560A"/>
</svg>
