<svg width="29" height="28" viewBox="0 0 29 28" fill="none" xmlns="http://www.w3.org/2000/svg">
<path d="M14.4999 2.91669C14.964 2.91669 15.4092 3.10106 15.7374 3.42925C16.0655 3.75744 16.2499 4.20256 16.2499 4.66669C16.2499 5.13082 16.0655 5.57594 15.7374 5.90412C15.4092 6.23231 14.964 6.41669 14.4999 6.41669H8.66659C8.51188 6.41669 8.3635 6.47815 8.25411 6.58754C8.14471 6.69694 8.08325 6.84531 8.08325 7.00002V21C8.08325 21.1547 8.14471 21.3031 8.25411 21.4125C8.3635 21.5219 8.51188 21.5834 8.66659 21.5834H13.9166C14.3807 21.5834 14.8258 21.7677 15.154 22.0959C15.4822 22.4241 15.6666 22.8692 15.6666 23.3334C15.6666 23.7975 15.4822 24.2426 15.154 24.5708C14.8258 24.899 14.3807 25.0834 13.9166 25.0834H8.66659C7.58362 25.0834 6.54501 24.6531 5.77923 23.8874C5.01346 23.1216 4.58325 22.083 4.58325 21V7.00002C4.58325 5.91705 5.01346 4.87844 5.77923 4.11267C6.54501 3.34689 7.58362 2.91669 8.66659 2.91669H14.4999ZM21.5699 9.46169L24.8704 12.7634C25.1981 13.0915 25.3822 13.5363 25.3822 14C25.3822 14.4638 25.1981 14.9086 24.8704 15.2367L21.5711 18.5384C21.2428 18.8666 20.7975 19.0511 20.3333 19.0511C19.869 19.0511 19.4237 18.8666 19.0954 18.5384C18.7671 18.2101 18.5827 17.7648 18.5827 17.3005C18.5827 16.8362 18.7671 16.391 19.0954 16.0627L19.4081 15.75H14.4999C14.0358 15.75 13.5907 15.5656 13.2625 15.2375C12.9343 14.9093 12.7499 14.4641 12.7499 14C12.7499 13.5359 12.9343 13.0908 13.2625 12.7626C13.5907 12.4344 14.0358 12.25 14.4999 12.25H19.4081L19.0954 11.9374C18.9329 11.7748 18.8041 11.5818 18.7162 11.3695C18.6283 11.1571 18.5831 10.9295 18.5831 10.6997C18.5832 10.4699 18.6285 10.2423 18.7165 10.03C18.8045 9.81765 18.9334 9.62475 19.096 9.46227C19.2586 9.29979 19.4515 9.17092 19.6639 9.08302C19.8762 8.99512 20.1038 8.9499 20.3337 8.94995C20.5635 8.95001 20.7911 8.99533 21.0034 9.08333C21.2157 9.17134 21.4086 9.3003 21.5711 9.46285L21.5699 9.46169Z" fill="white"/>
</svg>
