<svg width="28" height="28" viewBox="0 0 28 28" fill="none" xmlns="http://www.w3.org/2000/svg">
<path d="M5.19177 16.226L13.3036 23.8455C13.5836 24.108 13.7236 24.2398 13.8869 24.2725C13.9613 24.2871 14.0378 24.2871 14.1121 24.2725C14.2778 24.2398 14.4166 24.1092 14.6954 23.8455L22.8073 16.2272C23.9091 15.1927 24.5853 13.7844 24.7038 12.2777C24.8222 10.771 24.3744 9.27431 23.4478 8.08034L23.0861 7.61484C20.7901 4.65617 16.1818 5.152 14.5683 8.533C14.5169 8.64015 14.4364 8.7306 14.3358 8.79391C14.2353 8.85722 14.1189 8.89081 14.0001 8.89081C13.8813 8.89081 13.7649 8.85722 13.6644 8.79391C13.5639 8.7306 13.4833 8.64015 13.4319 8.533C11.8184 5.152 7.21011 4.655 4.91411 7.61484L4.55244 8.0815C3.62652 9.27531 3.17906 10.7715 3.2975 12.2776C3.41595 13.7838 4.09179 15.1916 5.19294 16.226H5.19177Z" fill="#BC560A" stroke="#BC560A" stroke-width="1.5"/>
</svg>
