<svg width="20" height="20" viewBox="0 0 20 20" fill="none" xmlns="http://www.w3.org/2000/svg">
<path d="M18.2898 19.5579L10.9842 12.2522C10.4008 12.7492 9.73 13.1339 8.97167 13.4061C8.21333 13.6783 7.45111 13.8144 6.685 13.8144C4.81678 13.8144 3.23556 13.1677 1.94133 11.8742C0.647111 10.5808 0 8.99997 0 7.13175C0 5.26353 0.646333 3.68191 1.939 2.38691C3.23167 1.09191 4.81211 0.443636 6.68033 0.44208C8.54856 0.440525 10.1306 1.08764 11.4263 2.38341C12.7221 3.67919 13.37 5.2608 13.37 7.12825C13.37 7.93869 13.2265 8.72308 12.9395 9.48141C12.6525 10.2397 12.2753 10.8884 11.8078 11.4274L19.1135 18.7319L18.2898 19.5579ZM6.68617 12.6466C8.23394 12.6466 9.54061 12.1138 10.6062 11.0482C11.6717 9.98269 12.2045 8.67564 12.2045 7.12708C12.2045 5.57852 11.6717 4.27186 10.6062 3.20708C9.54061 2.1423 8.23394 1.60952 6.68617 1.60875C5.13839 1.60797 3.83133 2.14075 2.765 3.20708C1.69867 4.27341 1.16589 5.58008 1.16667 7.12708C1.16744 8.67408 1.70022 9.98075 2.765 11.0471C3.82978 12.1134 5.13644 12.6462 6.685 12.6454" fill="#BC560A"/>
</svg>
